<svg xmlns="http://www.w3.org/2000/svg" width="1200" height="630" viewBox="0 0 1200 630" font-family="-apple-system, BlinkMacSystemFont, 'Segoe UI', Roboto, Helvetica, Arial, sans-serif">
  <rect width="1200" height="630" fill="#ffffff"/>

  <text x="600" y="44" text-anchor="middle" font-size="32" font-weight="700" fill="#2c2818">Built before it had a name</text>
  <text x="600" y="73" text-anchor="middle" font-size="16" fill="#6b6040">term coined/hyped vs. HumanLayer's writing vs. qte77's ships</text>

  <!-- legend -->
  <circle cx="360" cy="96" r="5" fill="#a8902e"/><text x="372" y="100" font-size="12.5" fill="#5a4810">coined / hyped</text>
  <circle cx="520" cy="96" r="5" fill="#983828"/><text x="532" y="100" font-size="12.5" fill="#7a2c20">HumanLayer wrote</text>
  <circle cx="718" cy="96" r="5" fill="#7a6010"/><text x="730" y="100" font-size="12.5" fill="#5a4810">qte77 shipped</text>

  <!-- faint vertical guides at quarter ticks -->
  <g stroke="#f0ece0" stroke-width="1">
    <line x1="110" y1="158" x2="110" y2="540"/>
    <line x1="322" y1="158" x2="322" y2="540"/>
    <line x1="533" y1="158" x2="533" y2="540"/>
    <line x1="745" y1="158" x2="745" y2="540"/>
    <line x1="956" y1="158" x2="956" y2="540"/>
    <line x1="1097" y1="158" x2="1097" y2="540"/>
  </g>
  <!-- Jan '26 alignment: ralph-loop ships as HumanLayer writes Ralph's history -->
  <line x1="745" y1="170" x2="745" y2="450" stroke="#e6c98a" stroke-width="2" stroke-dasharray="4 4"/>

  <!-- time axis -->
  <line x1="100" y1="540" x2="1110" y2="540" stroke="#c8c4b0" stroke-width="2"/>
  <g font-size="12" fill="#8a7848" text-anchor="middle">
    <text x="110" y="560">Apr &#8217;25</text>
    <text x="322" y="560">Jul</text>
    <text x="533" y="560">Oct</text>
    <text x="745" y="560">Jan &#8217;26</text>
    <text x="956" y="560">Apr</text>
    <text x="1097" y="560">Jun &#8217;26</text>
  </g>

  <!-- RAIL A: coined / hyped (gold) -->
  <line x1="100" y1="170" x2="1110" y2="170" stroke="#efe7cf" stroke-width="2"/>
  <circle cx="251" cy="170" r="6" fill="#a8902e"/>
  <text x="246" y="140" text-anchor="end" font-size="13" font-weight="700" fill="#5a4810">context engineering</text>
  <text x="246" y="156" text-anchor="end" font-size="11" fill="#8a7848">coined Jun &#8217;25</text>
  <circle cx="322" cy="170" r="6" fill="#a8902e"/>
  <text x="328" y="140" text-anchor="start" font-size="13" font-weight="700" fill="#5a4810">Ralph coined</text>
  <text x="328" y="156" text-anchor="start" font-size="11" fill="#8a7848">Huntley &#183; Jul &#8217;25</text>
  <circle cx="674" cy="170" r="6" fill="#a8902e"/>
  <text x="674" y="140" text-anchor="middle" font-size="13" font-weight="700" fill="#5a4810">Ralph hyped</text>
  <text x="674" y="156" text-anchor="middle" font-size="11" fill="#8a7848">Anthropic plugin &#183; Dec &#8217;25</text>
  <circle cx="1097" cy="170" r="6" fill="#a8902e"/>
  <text x="1103" y="140" text-anchor="end" font-size="13" font-weight="700" fill="#5a4810">loop engineering</text>
  <text x="1103" y="156" text-anchor="end" font-size="11" fill="#8a7848">viral Jun &#8217;26</text>

  <!-- RAIL B: HumanLayer wrote (rust) -->
  <line x1="100" y1="310" x2="1110" y2="310" stroke="#f3e2de" stroke-width="2"/>
  <circle cx="110" cy="310" r="6" fill="#983828"/>
  <text x="98" y="334" text-anchor="start" font-size="13" font-weight="600" fill="#7a2c20">12-factor agents</text>
  <text x="98" y="350" text-anchor="start" font-size="11" fill="#8a7848">Apr &#8217;25</text>
  <circle cx="392" cy="310" r="6" fill="#983828"/>
  <text x="392" y="334" text-anchor="middle" font-size="13" font-weight="600" fill="#7a2c20">ACE-FCA</text>
  <text x="392" y="350" text-anchor="middle" font-size="11" fill="#8a7848">Aug &#8217;25</text>
  <circle cx="745" cy="310" r="6" fill="#983828"/>
  <text x="745" y="334" text-anchor="middle" font-size="13" font-weight="600" fill="#7a2c20">Ralph history</text>
  <text x="745" y="350" text-anchor="middle" font-size="11" fill="#8a7848">Jan &#8217;26</text>
  <circle cx="886" cy="310" r="6" fill="#983828"/>
  <text x="886" y="334" text-anchor="middle" font-size="13" font-weight="600" fill="#7a2c20">harness eng</text>
  <text x="886" y="350" text-anchor="middle" font-size="11" fill="#8a7848">Mar &#8217;26</text>

  <!-- RAIL C: qte77 shipped (amber) -->
  <line x1="100" y1="450" x2="1110" y2="450" stroke="#efe7cf" stroke-width="2"/>
  <rect x="745" y="447" width="211" height="6" rx="3" fill="#587818" opacity="0.45"/>
  <circle cx="322" cy="450" r="6" fill="#7a6010"/>
  <text x="322" y="474" text-anchor="middle" font-size="12.5" font-weight="600" fill="#2c2818">context-engineering-template</text>
  <text x="322" y="490" text-anchor="middle" font-size="11" fill="#8a7848">Jul &#8217;25</text>
  <circle cx="745" cy="450" r="8" fill="#7a6010"/>
  <text x="745" y="474" text-anchor="middle" font-size="13.5" font-weight="700" fill="#2c2818">ralph-loop</text>
  <text x="745" y="490" text-anchor="middle" font-size="11" fill="#8a7848">Jan &#8217;26</text>
  <text x="980" y="438" text-anchor="middle" font-size="11.5" fill="#587818">harness cluster &#183; Jan&#8211;Apr &#8217;26</text>

  <text x="1166" y="612" text-anchor="end" font-size="13" fill="#cfc6ac">qte77.github.io</text>
</svg>
